# xmcd
#
# Track frame offsets:
#	183
#	22608
#	40833
#	55758
#	72183
#	87033
#	105783
#	121008
#
# Disc length: 1886 seconds
#
# Revision: 1
# Processed by: cddbd v1.5.1PL2 Copyright (c) Steve Scherf et al.
# Submitted via: audiograbber 1.83.01
#
DISCID=4b075c08
DTITLE=Schwaar Lauren - After Hours
DYEAR=1900
DGENRE=
TTITLE0=Never Trust a Woman
TTITLE1=Wasted Hero
TTITLE2=Let's Fly Away
TTITLE3=West Side Boogie
TTITLE4=Strange Voices
TTITLE5=After Hours
TTITLE6=Such a Feelin
TTITLE7=Why
EXTD=
EXTT0=
EXTT1=
EXTT2=
EXTT3=
EXTT4=
EXTT5=
EXTT6=
EXTT7=
PLAYORDER=
